<svg id="Lag_1" data-name="Lag 1" xmlns="http://www.w3.org/2000/svg" viewBox="0 0 380.85 186.13"><defs><style>.cls-1{fill:#71caf1;stroke-width:0.85px;}.cls-1,.cls-3,.cls-4{stroke:#0a0808;stroke-miterlimit:10;}.cls-2{fill:#1d1d1b;}.cls-3{fill:#fff;}.cls-3,.cls-4{stroke-width:0.92px;}.cls-4{fill:none;}</style></defs><g id="Lag_2" data-name="Lag 2"><g id="Lag_1-2" data-name="Lag 1-2"><ellipse class="cls-1" cx="190.42" cy="93.06" rx="190" ry="92.64"/><path class="cls-2" d="M56.48,49.73A5.19,5.19,0,0,1,55.09,48c-.07-.32.16-.59.66-.82l2.06-1L62.27,44q2.62-1.29,5.62-2.88c2-1.07,3.87-2.08,5.62-3a4.91,4.91,0,0,1-1.4-1.54.93.93,0,0,1,0-1,1.47,1.47,0,0,1,1.19-.19,6.61,6.61,0,0,1,2,.78,5.07,5.07,0,0,1,.72.4c.53-.26,1.07-.57,1.59-.87s.93-.51,1.43-.8l1.54-.9c5.24-3.14,7.8-4.77,12.83-8.16a3.27,3.27,0,0,1,1.89-.6,7.1,7.1,0,0,1,2.64,1,9.33,9.33,0,0,1,1.88,1.16c.29.3.37.49.25.6l-2.27,1.5c-1.21.78-2.68,1.75-4.43,2.87L87.59,36c-2.11,1.34-4.21,2.59-6.31,3.84C83.44,41.28,86,43.19,89,45.16c1.16.76,2.35,1.5,3.45,2.26s2.14,1.5,3.13,2.22Q97.85,48,100,46.25l4-3.2,3.23-2.64c.94-.77,1.63-1.35,2.09-1.71a15.45,15.45,0,0,1,1.36-.92,3.15,3.15,0,0,1,1.11-.4,2.67,2.67,0,0,1,1.09.1,7.35,7.35,0,0,1,1.21.46l.83.45c.25.13.55.32.91.51a9.63,9.63,0,0,1,1.16.76q-4.3,3.27-8.62,6.61T100,52.71c.6.47,1.13.87,1.59,1.19a9.73,9.73,0,0,1,1.07.85A3.59,3.59,0,0,1,104,56.29c.08.39-.22.71-.9.94l-1,.23q-.52.13-1.29.27a14.61,14.61,0,0,1-1.87.18l-.74-.82c-.26-.28-.5-.57-.74-.82s-.6-.62-.87-.92c-.68.49-1.34,1-2,1.43a19.77,19.77,0,0,0-1.84,1.44c-1.33,1-2.69,2.1-4,3.22s-2.44,2.07-3.81,3.27A51,51,0,0,0,81,68.43,6.42,6.42,0,0,1,79.87,68L79,67.5c-.3-.16-.59-.34-.89-.51H78l-.11-.08-.12-.09-.47-.34a2.78,2.78,0,0,1-.41-.43c-.15-.17-.34-.35-.5-.55L76,64.88a3.59,3.59,0,0,1-.42-.6,23.39,23.39,0,0,0,2.54-1.87c.74-.63,1.36-1.22,1.86-1.72s1.15-1.14,1.56-1.64a7.81,7.81,0,0,0,1.36-2.46,12.13,12.13,0,0,0,.7-3.2,16,16,0,0,0-.09-3.52,13.49,13.49,0,0,0-1-3.52,11.33,11.33,0,0,0-1.75-2.83,14.72,14.72,0,0,0-2.19-2.06L76.05,43q-1.2.77-2.25,1.53c-1.62,1.09-3.23,2.13-4.75,3.16l-4,2.77c-1.41.94-3,2.43-3.52,2.5s-1.45-.7-2.06-1.07-1.13-.75-1.57-1.06A12,12,0,0,1,56.48,49.73Zm35.05,1.16c-1.15-1-2.27-1.9-3.34-2.73l-2.85-2.23a8.91,8.91,0,0,1,1,2.55c.18.87.34,1.85.5,2.89a10.32,10.32,0,0,1,.06,2.83c-.12.92-.27,1.78-.45,2.57,1.09-.89,2.17-1.76,3.25-2.59s2.08-1.62,3-2.35c-.19-.18-.38-.34-.57-.49A4.27,4.27,0,0,0,91.53,50.89Z" transform="translate(0.01 0.01)"/><path class="cls-2" d="M119.83,71.38c-1.52.67-3.08,1.29-4.67,1.84a42.21,42.21,0,0,1-4.55,1.31,22.65,22.65,0,0,1-3.85.58,5,5,0,0,1-2.49-.34,4.38,4.38,0,0,1-2.35-2.92,9.15,9.15,0,0,1,0-4.1,17.82,17.82,0,0,1,1.51-4.37,23.6,23.6,0,0,1,2.18-3.73,22.47,22.47,0,0,1,2-2.36,5.75,5.75,0,0,1,1.56-1.17,2.88,2.88,0,0,1,1.42-.26,7.22,7.22,0,0,1,1.66.35,6.08,6.08,0,0,1,.93.34,4.21,4.21,0,0,1,.88.49,1.26,1.26,0,0,1,.48.61c.07.22,0,.45-.29.68a10.93,10.93,0,0,0-1,1c-.43.46-.91.89-1.43,1.43s-1,1.1-1.58,1.7a19,19,0,0,0-1.43,1.79,12.9,12.9,0,0,0-1.53,2.86,9.42,9.42,0,0,0-.59,2.35,4.48,4.48,0,0,0,.1,1.67q.18.66.42.78a2.81,2.81,0,0,0,1.41,0,21.19,21.19,0,0,0,2.62-.61q1.51-.45,3.27-1.17a30.16,30.16,0,0,0,3.38-1.65,3.54,3.54,0,0,1,.5-1.82,8,8,0,0,1,2.11-2.33A10.17,10.17,0,0,1,123,62.91a8.41,8.41,0,0,1,2.37-.54,4,4,0,0,1,1.84.23c1,.41,1.49.85,1.56,1.36a2,2,0,0,1-.25,1.35,8.7,8.7,0,0,1-2.11,2.17,29.71,29.71,0,0,1-4,2.54l.56.45a3.4,3.4,0,0,0,.79.44,16,16,0,0,0,6.93,1.32,11.83,11.83,0,0,0,2.45-.32c.71-.18,1.28-.33,1.71-.46a1.22,1.22,0,0,1,.8,0,1.14,1.14,0,0,1,.54.34.49.49,0,0,1,.1.49.89.89,0,0,1-.56.48,15.73,15.73,0,0,1-6.37,1.41,18.59,18.59,0,0,1-7.66-1.66c-.24-.1-.53-.25-.87-.43A10,10,0,0,1,119.83,71.38Z" transform="translate(0.01 0.01)"/><path class="cls-2" d="M136.57,67.59a2.64,2.64,0,0,1,1.25-.09,11.08,11.08,0,0,1,1.76.24,16.18,16.18,0,0,1,1.61.37,3.86,3.86,0,0,1,.83.28,6.31,6.31,0,0,1-.59.89c-.42.55-1,1.19-1.57,1.92s-1.26,1.47-1.94,2.22-1.22,1.37-1.61,1.86-.83,1-1.35,1.64-1,1.19-1.45,1.77a12,12,0,0,0-1.11,1.72,2.15,2.15,0,0,0,.16,2.4,1.73,1.73,0,0,0,.74.48,7.19,7.19,0,0,0,3.51,0A28.54,28.54,0,0,0,141.43,82a40.3,40.3,0,0,0,4.43-1.92,27.25,27.25,0,0,0,3.06-1.76,2.6,2.6,0,0,1,1.15-.37,1.12,1.12,0,0,1,.84.26.73.73,0,0,1,.22.7,1.64,1.64,0,0,1-.63.9,22.67,22.67,0,0,1-3.69,2.44,41.89,41.89,0,0,1-5.08,2.38,31.25,31.25,0,0,1-5.19,1.54,8.62,8.62,0,0,1-3.88.1,6.82,6.82,0,0,1-2-1,7.4,7.4,0,0,1-1.61-1.5A5.57,5.57,0,0,1,128,82a3.05,3.05,0,0,1-.08-1.72,15.94,15.94,0,0,1,1.17-3.13,32.92,32.92,0,0,1,2.17-3.84,31.48,31.48,0,0,1,2.64-3.53A8.83,8.83,0,0,1,136.57,67.59Zm10.85-7.47a2.71,2.71,0,0,1-.92.83,4.22,4.22,0,0,1-1.28.48,4.05,4.05,0,0,1-1.3,0A1.35,1.35,0,0,1,143,61a2.3,2.3,0,0,1-.68-2,2.64,2.64,0,0,1,1-1.47,5.37,5.37,0,0,1,1.74-.87,3.81,3.81,0,0,1,1.57-.21,1.29,1.29,0,0,1,.92.5,2.11,2.11,0,0,1,.38,1,3.08,3.08,0,0,1-.08,1.17,3,3,0,0,1-.43,1Z" transform="translate(0.01 0.01)"/><path class="cls-2" d="M165.47,83.86l-1,2.76a17.44,17.44,0,0,0-.68,2.12,2,2,0,0,0,.32,1.83,2.18,2.18,0,0,0,1.36.73,5.07,5.07,0,0,0,2.34-.38,21.88,21.88,0,0,0,3-1.36A35.57,35.57,0,0,0,174,87.63c1.05-.72,2-1.42,2.9-2.08s1.61-1.26,2.21-1.78,1-.85,1.22-1a1.59,1.59,0,0,1,.79-.3,1.06,1.06,0,0,1,.65.13.58.58,0,0,1,.22.55,1.65,1.65,0,0,1-.55.95,28.88,28.88,0,0,1-2.08,2.06c-.85.78-1.8,1.57-2.86,2.37s-2.17,1.56-3.36,2.3a28.25,28.25,0,0,1-3.57,1.88,21.82,21.82,0,0,1-3.44,1.18,7.66,7.66,0,0,1-2.9.2,4.11,4.11,0,0,1-1.69-.65,5.64,5.64,0,0,1-1.32-1.26,4.58,4.58,0,0,1-.78-1.56,2.87,2.87,0,0,1,0-1.59c.07-.21.21-.6.4-1.13a23,23,0,0,1-6.15,2.54,11.92,11.92,0,0,1-5.6.14,6.1,6.1,0,0,1-1.87-.81,4.75,4.75,0,0,1-1.57-1.55,5.71,5.71,0,0,1-.79-2.33,6.84,6.84,0,0,1,.42-3.07,14.58,14.58,0,0,1,2.8-4.82,17.75,17.75,0,0,1,4.11-3.52,15.73,15.73,0,0,1,4.74-2,11.35,11.35,0,0,1,4.75-.17,4.26,4.26,0,0,1,1.74.73,5.1,5.1,0,0,1,1.24,1.3,6.54,6.54,0,0,1,.75,1.58,9,9,0,0,1,.34,1.54c.43-.89.83-1.77,1.2-2.63s.73-1.71,1.09-2.46c.53-1.13,1.14-2.38,1.76-3.7.53-1.13,1.16-2.45,1.85-3.94s1.41-3,2.19-4.69a4.79,4.79,0,0,1,1.09-.47,8.4,8.4,0,0,1,1-.19,3.54,3.54,0,0,1,.92,0,3.43,3.43,0,0,1,1,.21,1.35,1.35,0,0,1,.67.7,4.17,4.17,0,0,1,.27,1.56,18.52,18.52,0,0,1-.24,2.78,19.68,19.68,0,0,1-1.28,4.59,34.7,34.7,0,0,1-2.57,5,45.61,45.61,0,0,1-3.7,5A41,41,0,0,1,165.47,83.86Zm-3.8,0a8,8,0,0,0,.77-1.75q.38-.89.84-1.8l-.24.06a.88.88,0,0,1-.23.07c-.47.08-.78,0-.91-.18a1.17,1.17,0,0,1-.1-.88c0-.2.07-.55.11-1a6.13,6.13,0,0,0-.06-1.6,4.41,4.41,0,0,0-.56-1.53,1.92,1.92,0,0,0-1.38-.87,4.81,4.81,0,0,0-3,.57,18.36,18.36,0,0,0-3.28,2.15,20.36,20.36,0,0,0-2.92,3,10,10,0,0,0-1.77,3,4.48,4.48,0,0,0,0,3.45,3.14,3.14,0,0,0,2.2,1.56,5.7,5.7,0,0,0,2.69-.12,16.07,16.07,0,0,0,3-1.09,25.75,25.75,0,0,0,2.78-1.52,12.94,12.94,0,0,0,2.06-1.37Z" transform="translate(0.01 0.01)"/><path class="cls-2" d="M199.7,82.38a1.08,1.08,0,0,1,.63-.41.91.91,0,0,1,.65,0,.62.62,0,0,1,.31.47,1.66,1.66,0,0,1-.29.94,26.3,26.3,0,0,1-3.1,4.18,39.2,39.2,0,0,1-4.3,4.15,27.63,27.63,0,0,1-4.6,3.13A8.12,8.12,0,0,1,185.17,96a8.76,8.76,0,0,1-3.64-.78,6.28,6.28,0,0,1-2.21-1.68,5.17,5.17,0,0,1-1-2.1,5,5,0,0,1,0-2c.09-.5.29-1.44.63-2.77s.78-2.87,1.3-4.62,1.09-3.62,1.69-5.63,1.22-3.94,1.84-5.8l-2,.1a13.37,13.37,0,0,1-1.79,0,14.55,14.55,0,0,1-3.46-.63,14.26,14.26,0,0,1-2.37-.94c-.29-.16-.4-.36-.34-.6a1.69,1.69,0,0,1,.42-.69,2.67,2.67,0,0,1,.77-.56,1.46,1.46,0,0,1,.79-.2c.71.14,1.48.26,2.3.37a22.5,22.5,0,0,0,2.72.22h2.07a19.69,19.69,0,0,0,2-.16c.55-1.55,1.06-2.89,1.55-4a10.42,10.42,0,0,1,1.29-2.39,1.31,1.31,0,0,1,.73-.41,8.46,8.46,0,0,1,1.22-.23,6.42,6.42,0,0,1,1.24,0,1.28,1.28,0,0,1,.87.37,3.9,3.9,0,0,1,.23,2A22,22,0,0,1,191.4,67a38.53,38.53,0,0,1,4.2.14c1.2.14,2.27.22,3.15.35a20.63,20.63,0,0,1,2.12.41,10.26,10.26,0,0,0,1.22.28.51.51,0,0,1,.47.46,1.76,1.76,0,0,1-.11.82,1.78,1.78,0,0,1-.61.75,1.55,1.55,0,0,1-1,.27,5.27,5.27,0,0,1-1.31-.12,9.55,9.55,0,0,0-1.74-.15L195.34,70h-4.88c-.16.52-.3,1-.44,1.54a12.34,12.34,0,0,1-.56,1.58c-.52,1.3-1.12,2.72-1.83,4.23-.62,1.32-1.38,2.84-2.3,4.54s-2,3.5-3.16,5.4a5.62,5.62,0,0,0-.06,3.2,3.54,3.54,0,0,0,1.14,1.63,4.29,4.29,0,0,0,2.08.66,5.27,5.27,0,0,0,2.41-.46,15.33,15.33,0,0,0,2.91-1.62,36.88,36.88,0,0,0,3-2.27c1-.83,1.89-1.66,2.7-2.47s1.52-1.54,2.12-2.21Z" transform="translate(0.01 0.01)"/><path class="cls-2" d="M233.39,66.73c-.06-.08,0-.36.14-.82A16.61,16.61,0,0,0,234,64.2a19,19,0,0,0,.37-2.24,10.12,10.12,0,0,0,0-2.46,7.36,7.36,0,0,0-.73-2.33,5.29,5.29,0,0,0-1.77-1.93,2.42,2.42,0,0,0-1.73-.2,7.76,7.76,0,0,0-2.23.91,16.17,16.17,0,0,0-2.43,1.76,17.79,17.79,0,0,0-2.2,2.31,12.61,12.61,0,0,0-1.58,2.61,5.33,5.33,0,0,0-.47,2.64,5.91,5.91,0,0,0,.46,1.85,7.74,7.74,0,0,0,.86,1.47,11.45,11.45,0,0,0,1,1.19c.35.35.69.67,1,.93a8.38,8.38,0,0,0,1.78,1.16l2.6,1.33c.94.5,1.92,1.07,2.93,1.72a16.51,16.51,0,0,1,2.86,2.34A12.19,12.19,0,0,1,237,80.49a12.41,12.41,0,0,1,1.15,4.39,15.73,15.73,0,0,1-.69,6.43A14.73,14.73,0,0,1,234.88,96a13.08,13.08,0,0,1-3.42,3,18.26,18.26,0,0,1-3.11,1.52c-.67.24-1.47.49-2.4.74a14.56,14.56,0,0,1-3,.49,14.83,14.83,0,0,1-3.26-.17,8,8,0,0,1-3.05-1.15,10.46,10.46,0,0,1-2.6-2.32,9.67,9.67,0,0,1-1.46-2.65,5.21,5.21,0,0,1,0-3.31,8.72,8.72,0,0,1,1-.92,10,10,0,0,1,1.1-.73,12.43,12.43,0,0,1,1.28-.73c.51-.22,1.09-.41,1.63-.58a12.6,12.6,0,0,1,1.5-.36,5.7,5.7,0,0,1,1.54-.09,5.91,5.91,0,0,0-1.1,1.77,4.16,4.16,0,0,0-.28.74,6.62,6.62,0,0,0,1.32,4.56,5.44,5.44,0,0,0,5.6,2c3.31-.56,5.74-3,7.07-7.21a6.54,6.54,0,0,0,.29-3.74,9.59,9.59,0,0,0-1.4-3.23A14.73,14.73,0,0,0,229.86,81a19.91,19.91,0,0,0-2.48-2c-.8-.52-1.74-1.08-2.8-1.68a30.85,30.85,0,0,1-3.18-2,17.77,17.77,0,0,1-2.88-2.6,9.53,9.53,0,0,1-2-3.33,8.37,8.37,0,0,1-.24-5,14,14,0,0,1,2-4.4,17.45,17.45,0,0,1,3.12-3.47,14.15,14.15,0,0,1,3.18-2.13c5.33-2.35,9.09-2.65,11.69-.55a6.69,6.69,0,0,1,2.28,2.85,11.23,11.23,0,0,1,.75,6A4.36,4.36,0,0,1,239,64a5.17,5.17,0,0,1-.87.94A10.63,10.63,0,0,1,236,66.14a4.79,4.79,0,0,1-.88.36,6.28,6.28,0,0,1-.86.19A2.83,2.83,0,0,1,233.39,66.73Z" transform="translate(0.01 0.01)"/><path class="cls-2" d="M275,71.75a10.42,10.42,0,0,1-.83-2.22c-.24-.87-.44-1.78-.61-2.74s-.34-1.91-.49-2.82-.31-1.73-.45-2.43a2.34,2.34,0,0,0-1-1.68A1.67,1.67,0,0,0,270,60a6.31,6.31,0,0,0-1.43,1.53,13.06,13.06,0,0,0-1.79,3.58,24.41,24.41,0,0,0-1.14,5.61,26.16,26.16,0,0,0,.56,7.74,10.49,10.49,0,0,1-2,1.57c-.34.22-.66.43-.93.57a2.58,2.58,0,0,1-1.75.4c-.34-.12-.53-.68-.57-1.69v-2.4c0-1.11,0-2.3-.07-3.56s-.22-2.51-.41-3.72a12,12,0,0,0-.83-3,1.69,1.69,0,0,0-.89-1,1.76,1.76,0,0,0-1.19.15A6.5,6.5,0,0,0,256,67a10.63,10.63,0,0,0-2,2.88,19.75,19.75,0,0,0-1.61,4.85,26.84,26.84,0,0,0-.38,7.1v.74a4.74,4.74,0,0,0,.06.75,3.25,3.25,0,0,1,.06.76c-1.12.86-1.68,1.28-2.82,2.12a4.28,4.28,0,0,1-.76.41,1.87,1.87,0,0,1-.93.18,1.16,1.16,0,0,1-.83-.47,2.74,2.74,0,0,1-.37-1.58c0-5.37,0-8-.24-13.37a9.64,9.64,0,0,0-.12-1.25,6.81,6.81,0,0,0-.2-1,2.33,2.33,0,0,0-.37-.78c.56-.47,1.06-.86,1.51-1.17l1.1-.71a5.43,5.43,0,0,1,.91-.51c1.21-.46,1.94.22,2.17,2,0,.54.08,1.35.13,2.41.46-1,1-2,1.53-3a25,25,0,0,1,1.75-2.76,15.48,15.48,0,0,1,2-2.28,8.22,8.22,0,0,1,2.26-1.56,3,3,0,0,1,1.78-.29,3.3,3.3,0,0,1,1.55.69,5,5,0,0,1,1.25,1.51,10.73,10.73,0,0,1,.88,2.1c.3-.91.66-1.85,1.07-2.84a21.32,21.32,0,0,1,1.41-2.83,17.46,17.46,0,0,1,1.78-2.5,8.42,8.42,0,0,1,2.2-1.83,3.8,3.8,0,0,1,2.6-.6,4.11,4.11,0,0,1,2.09,1.09,7.12,7.12,0,0,1,1.5,2.15,15.52,15.52,0,0,1,.93,2.63c.59,2.72.87,4.08,1.4,6.82.39,1.66,1.2,2.14,2.45,1.4a7.3,7.3,0,0,0,2.59-2.92,24,24,0,0,0,1.84-4.45,40.17,40.17,0,0,0,1.13-4.73c.27-1.55.5-2.82.71-3.8a1.52,1.52,0,0,1,.44-.79,1.16,1.16,0,0,1,.65-.31.68.68,0,0,1,.59.27,1.61,1.61,0,0,1,.27,1,42.1,42.1,0,0,1-.49,5,30,30,0,0,1-1.4,5.6,23,23,0,0,1-2.63,5.24,12.45,12.45,0,0,1-4.19,3.88,10,10,0,0,1-1.72.8,5.87,5.87,0,0,1-1.76.36,3.31,3.31,0,0,1-1.61-.33A2.8,2.8,0,0,1,275,71.75Z" transform="translate(0.01 0.01)"/><path class="cls-2" d="M285.89,46.07a2.63,2.63,0,0,1,.67-1.09c.4-.44.82-.89,1.28-1.32a15.45,15.45,0,0,1,1.28-1.15,3.78,3.78,0,0,1,.73-.53c.06,0,.18.33.38,1s.41,1.47.63,2.4.44,1.9.65,2.91.4,1.8.57,2.4.35,1.29.53,2.07.37,1.51.58,2.23a10.72,10.72,0,0,0,.75,1.9,2,2,0,0,0,1,1,2.25,2.25,0,0,0,1.08.21,1.77,1.77,0,0,0,.85-.35,7.65,7.65,0,0,0,2.13-2.9,31.91,31.91,0,0,0,1.75-4.63,42.45,42.45,0,0,0,1.13-4.84,27.35,27.35,0,0,0,.43-3.61,2.67,2.67,0,0,1,.4-1.19,1.24,1.24,0,0,1,.73-.58.77.77,0,0,1,.72.21,1.62,1.62,0,0,1,.36,1.06,24.45,24.45,0,0,1-.26,4.52,43.81,43.81,0,0,1-1.15,5.67,33,33,0,0,1-1.9,5.26,9.16,9.16,0,0,1-2.27,3.3,7.69,7.69,0,0,1-2.05,1.16,8.31,8.31,0,0,1-2.21.48,5.88,5.88,0,0,1-2-.2,3.09,3.09,0,0,1-1.46-.92,16.68,16.68,0,0,1-1.88-2.77,34.49,34.49,0,0,1-1.85-4,31.39,31.39,0,0,1-1.32-4.23A8.67,8.67,0,0,1,285.89,46.07Zm.43-13.36a2.94,2.94,0,0,1,.12,1.25,4.25,4.25,0,0,1-.38,1.35,4.21,4.21,0,0,1-.76,1.11,1.47,1.47,0,0,1-1,.5,2.27,2.27,0,0,1-2.05-.57,2.54,2.54,0,0,1-.6-1.69,5.68,5.68,0,0,1,.34-2,4,4,0,0,1,.79-1.44,1.42,1.42,0,0,1,1-.49,2.17,2.17,0,0,1,1,.24,3.39,3.39,0,0,1,1.54,1.74Z" transform="translate(0.01 0.01)"/><path class="cls-2" d="M306.25,52.57c-2.26-6-4.23-10.64-5.77-14.14s-2.76-6.15-3.62-7.95c-1-2.13-1.76-3.64-2.19-4.41-.3-.52-.67-1-1-1.53a11.06,11.06,0,0,0-1-1.26,6.07,6.07,0,0,0-1.15-1,4.6,4.6,0,0,1,.48-1c.2-.32.42-.63.61-.91s.5-.72.76-1.06a7.14,7.14,0,0,1,.77-.88,5.1,5.1,0,0,1,.67-.56.65.65,0,0,1,.6-.14c.28-.05.58.1.91.46a9.35,9.35,0,0,1,1,1.17c.33.51.67,1.15,1,1.8.64,1.34,1.59,3.24,2.79,5.75,1,2.13,2.4,5.05,4.06,8.8s3.69,8.51,5.93,14.38a2.3,2.3,0,0,1-.41.81,4.13,4.13,0,0,1-.64.68,8.69,8.69,0,0,1-.84.66,3.94,3.94,0,0,1-.94.41,4.24,4.24,0,0,1-1,.15A1.89,1.89,0,0,1,306.25,52.57Z" transform="translate(0.01 0.01)"/><path class="cls-3" d="M315.57,136.41a215.19,215.19,0,0,1-250.29,0C49.6,125.17,47.8,104.48,59.47,93.46l3.39-3.41,3.38-3.41c11.68-11.1,28.42-12.57,38.53-5.42a147.28,147.28,0,0,0,171.3,0c10.12-7.15,26.85-5.68,38.53,5.42l6.78,6.82C333,104.48,331.24,125.17,315.57,136.41Z" transform="translate(0.01 0.01)"/><path class="cls-4" d="M62.86,90.05a181.06,181.06,0,0,0,255.13,0" transform="translate(0.01 0.01)"/><path class="cls-4" d="M113.84,87.23l-35.31,58" transform="translate(0.01 0.01)"/><path class="cls-4" d="M141,100.19l-22.76,63.94" transform="translate(0.01 0.01)"/><path class="cls-4" d="M169.88,107.25l-9.48,67.2" transform="translate(0.01 0.01)"/><path class="cls-4" d="M199.38,108.42q2.06,33.86,4.13,67.72" transform="translate(0.01 0.01)"/><path class="cls-4" d="M224.69,104.66l15.81,66" transform="translate(0.01 0.01)"/><path class="cls-4" d="M248.42,96.82Q261.8,128,275.17,159.2" transform="translate(0.01 0.01)"/><path class="cls-4" d="M270.8,84.83l37.07,56.85" transform="translate(0.01 0.01)"/></g></g></svg>