<?xml version="1.0" encoding="UTF-8"?> <svg xmlns="http://www.w3.org/2000/svg" width="46.845" height="52.278" viewBox="0 0 46.845 52.278"><path id="Path_286" data-name="Path 286" d="M53.975,11.894A13.674,13.674,0,0,0,44.3,8a12.207,12.207,0,0,0-6.335,1.761A7.871,7.871,0,0,1,34,11a7.871,7.871,0,0,1-3.966-1.239A12.207,12.207,0,0,0,23.7,8a13.674,13.674,0,0,0-9.674,3.894,12.892,12.892,0,0,0-3.411,9.75c.134,4.739,2,10.146,3.967,15.871,2.072,6.018,4.215,12.24,4.779,18.61.248,2.8,2.016,3.97,3.587,4.13q.226.023.452.023a5.794,5.794,0,0,0,5.276-4.285,17.229,17.229,0,0,0,.392-3.148C29.444,47.763,30.135,42.8,34,42.8s4.556,4.961,4.933,10.043a17.229,17.229,0,0,0,.392,3.148A5.794,5.794,0,0,0,44.6,60.277a4.459,4.459,0,0,0,.452-.023c1.571-.16,3.339-1.328,3.587-4.13.564-6.37,2.707-12.592,4.779-18.61,1.972-5.724,3.833-11.132,3.967-15.871a12.892,12.892,0,0,0-3.411-9.75ZM46.647,55.947c-.123,1.389-.761,2.211-1.8,2.317a3.723,3.723,0,0,1-3.609-2.845,17.678,17.678,0,0,1-.314-2.723C40.6,48.247,40.046,40.8,34,40.8s-6.6,7.446-6.927,11.9a17.679,17.679,0,0,1-.314,2.723,3.716,3.716,0,0,1-3.609,2.845c-1.036-.105-1.674-.928-1.8-2.317A67.822,67.822,0,0,0,17.73,40.565c.051-.031.114-.061.163-.091.2-.131.453-.285.731-.454a14.339,14.339,0,0,0,2.271-1.576,4.507,4.507,0,0,1,.927.573,6.657,6.657,0,0,0,1.491.88,2.974,2.974,0,0,0,3.854-.835c1.975.622,3.42-.247,4.711-1.022a12.276,12.276,0,0,1,1.521-.818c.51-.216.729-.11,1.407.29a6.15,6.15,0,0,0,1.459.68,3.652,3.652,0,0,0,3.047-.374l.745-.351a8.832,8.832,0,0,0,2.332-1.4A8.063,8.063,0,0,0,43,35.432c.2-.227.582-.651.676-.725a3.712,3.712,0,0,1,.251.914c.173.876.41,2.076,1.563,2.353,1.275.3,2.21-.96,2.769-2.076.039.087.081.2.112.289a2.629,2.629,0,0,0,.487.922,7,7,0,0,0,2.1,1.434C49.033,44.151,47.18,49.935,46.647,55.947Zm4.961-19.318a4.737,4.737,0,0,1-1.241-.828,2.49,2.49,0,0,1-.118-.293,3.077,3.077,0,0,0-.533-1.021,4.44,4.44,0,0,0-.994-.8c-.105-.069-.206-.133-.287-.194a1,1,0,0,0-1.543.483A7.276,7.276,0,0,1,46,35.765c-.044-.178-.085-.382-.115-.533a2.967,2.967,0,0,0-1.118-2.188c-1.5-.911-2.647.367-3.262,1.054a6.062,6.062,0,0,1-.449.473,7.046,7.046,0,0,1-1.839,1.078l-.778.367c-.756.365-.935.452-1.624.253a4.322,4.322,0,0,1-1-.48,3.224,3.224,0,0,0-3.2-.41,13.809,13.809,0,0,0-1.773.946c-1.41.845-2.208,1.26-3.5.666a1,1,0,0,0-1.095.174c-.181.167-.342.326-.492.474-.741.733-.785.776-1.7.4A4.851,4.851,0,0,1,23,37.4a5.162,5.162,0,0,0-2.259-1.073,1,1,0,0,0-1.027.452,9.7,9.7,0,0,1-2.127,1.532c-.187.114-.356.217-.511.314q-.3-.882-.6-1.76c-1.92-5.576-3.733-10.842-3.859-15.276a10.972,10.972,0,0,1,2.846-8.3A11.639,11.639,0,0,1,23.7,10a10.238,10.238,0,0,1,5.4,1.529A9.726,9.726,0,0,0,34,13a9.726,9.726,0,0,0,4.9-1.471A10.238,10.238,0,0,1,44.3,10a11.639,11.639,0,0,1,8.24,3.288,10.972,10.972,0,0,1,2.846,8.3C55.263,25.958,53.5,31.14,51.608,36.629ZM41.625,14.063a1,1,0,0,1-.8,1.169,5.182,5.182,0,0,0-2.415,1.4,6.07,6.07,0,0,1-4.2,1.868c-.071,0-.145,0-.218,0s-.147,0-.218,0a6.069,6.069,0,0,1-4.2-1.868,5.181,5.181,0,0,0-2.414-1.4,1,1,0,0,1,.374-1.965,7.016,7.016,0,0,1,3.336,1.843A4.14,4.14,0,0,0,33.959,16.5c.014,0,.027.007.041.006s.027-.007.042-.006a4.092,4.092,0,0,0,3.078-1.388,7.016,7.016,0,0,1,3.336-1.843,1,1,0,0,1,1.169.8Zm5.657,33.044a1.5,1.5,0,1,1-1.5-1.5,1.5,1.5,0,0,1,1.5,1.5Zm-22.06,2.1A1.21,1.21,0,1,1,24.013,48a1.21,1.21,0,0,1,1.21,1.21ZM43.387,42.17a1.21,1.21,0,1,1,1.21-1.21,1.21,1.21,0,0,1-1.21,1.21Zm1.81,9.462a.9.9,0,1,1-.9-.9.9.9,0,0,1,.9.9Zm-22.72-6.455a1.883,1.883,0,1,1,1.883-1.883,1.883,1.883,0,0,1-1.883,1.883Z" transform="translate(-10.577 -7.999)"></path></svg> 