<?xml version="1.0" encoding="UTF-8"?> <svg xmlns="http://www.w3.org/2000/svg" width="43.144" height="54.415" viewBox="0 0 43.144 54.415"><path id="Path_282" data-name="Path 282" d="M52.774,9.949c-2.846-2.926-7.057-3.363-9.313-3.363A15.931,15.931,0,0,0,37.752,7.6,10.59,10.59,0,0,1,34,8.341,10.59,10.59,0,0,1,30.248,7.6a15.931,15.931,0,0,0-5.709-1.015c-2.257,0-6.468.437-9.314,3.363-1.948,2-2.887,4.776-2.791,8.248.128,4.376,1.905,9.537,3.473,14.089a4.68,4.68,0,0,0,4.422,3.157h.313V37a3,3,0,0,0,3,3H25v1.138L23.595,41A1,1,0,1,0,23.405,43L25,43.147v1.991L23.595,45A1,1,0,1,0,23.405,47L25,47.147v1.991l-.744-.071a1,1,0,0,0-.19,1.991l1.412.134,1.045,2.09-.429-.041a1,1,0,0,0-.189,1.991l1.673.159,2.527,5.054A1,1,0,0,0,31,61h6a1,1,0,0,0,.895-.553l1.943-3.887,1.379.131c.032,0,.064,0,.1,0a1,1,0,0,0,.094-2l-.61-.058.95-1.9,1.477.141c.032,0,.064,0,.1,0a1,1,0,0,0,.094-2l-.707-.067.189-.377A1,1,0,0,0,43,50V48.862L44.405,49c.032,0,.064,0,.1,0a1,1,0,0,0,.094-2L43,46.853V44.862L44.405,45c.032,0,.064,0,.1,0a1,1,0,0,0,.094-2L43,42.853V40h1.357a3,3,0,0,0,3-3V35.444h.313a4.682,4.682,0,0,0,4.423-3.156c1.567-4.553,3.345-9.714,3.473-14.09h0C55.661,14.726,54.723,11.951,52.774,9.949ZM36.382,59H31.618l-1.692-3.383,7.777.741Zm2.28-4.561-9.791-.932-1.045-2.09L39.612,52.54ZM41,49.764l-.429.857L27,49.329V47.338l14,1.333Zm0-3.1L27,45.329V43.338l14,1.333Zm0-4L27,41.329V40H41ZM45.357,37a1,1,0,0,1-1,1H23.643a1,1,0,0,1-1-1V35.444H45.357ZM50.2,31.636a2.681,2.681,0,0,1-2.532,1.808H20.329A2.679,2.679,0,0,1,17.8,31.635c-1.521-4.418-3.245-9.425-3.363-13.5a9,9,0,0,1,2.225-6.8c2.334-2.4,5.938-2.758,7.88-2.758a14.028,14.028,0,0,1,5.07.91A12.551,12.551,0,0,0,34,10.341,12.551,12.551,0,0,0,38.391,9.5a14.029,14.029,0,0,1,5.07-.91c1.941,0,5.546.358,7.88,2.758a9,9,0,0,1,2.225,6.8C53.446,22.212,51.723,27.219,50.2,31.636ZM41.084,11.219a1,1,0,0,1-.8,1.17,4.69,4.69,0,0,0-2.18,1.27,5.717,5.717,0,0,1-3.916,1.735c-.064,0-.128,0-.192,0s-.13,0-.192,0a5.717,5.717,0,0,1-3.916-1.735,4.69,4.69,0,0,0-2.18-1.27,1,1,0,0,1,.373-1.965,6.509,6.509,0,0,1,3.1,1.712,3.751,3.751,0,0,0,2.771,1.255c.014,0,.027.007.041.008s.027-.008.041-.008a3.756,3.756,0,0,0,2.771-1.255,6.509,6.509,0,0,1,3.1-1.712,1,1,0,0,1,1.17.8Z" transform="translate(-12.428 -6.585)"></path></svg> 