<?xml version="1.0" encoding="UTF-8"?> <svg xmlns="http://www.w3.org/2000/svg" width="45.143" height="62.501" viewBox="0 0 45.143 62.501"><g id="noun_Dental_Filling_3326184" data-name="noun_Dental Filling_3326184" transform="translate(-11.425 -2.388)"><g id="Dental_Fillings" data-name="Dental Fillings"><path id="Path_280" data-name="Path 280" d="M53.368,20.2A12.676,12.676,0,0,0,44.4,16.6a11.3,11.3,0,0,0-5.87,1.631,7.188,7.188,0,0,1-3.614,1.131A7.189,7.189,0,0,1,31.31,18.23a12.691,12.691,0,0,0-3.666-1.422,1,1,0,0,0-1.189.906c-.221,2.938-2.307,7.021-3.851,7.534-1.232.413-4.8-1.026-6.943-2.179a1,1,0,0,0-1.4.493,13.635,13.635,0,0,0-.961,5.674c.126,4.378,1.843,9.363,3.66,14.642,1.907,5.537,3.879,11.263,4.4,17.12.233,2.623,1.892,3.719,3.367,3.87A5.34,5.34,0,0,0,30.1,60.89a15.955,15.955,0,0,0,.361-2.907c.343-4.647.97-9.185,4.462-9.185s4.12,4.537,4.462,9.185a15.98,15.98,0,0,0,.362,2.912,5.422,5.422,0,0,0,4.937,4,4.175,4.175,0,0,0,.427-.022c1.475-.151,3.134-1.247,3.367-3.87.521-5.857,2.493-11.583,4.4-17.12,1.817-5.278,3.534-10.264,3.66-14.642h0A11.946,11.946,0,0,0,53.368,20.2ZM50.983,43.226c-1.946,5.651-3.958,11.494-4.5,17.594-.109,1.233-.67,1.964-1.579,2.057A3.35,3.35,0,0,1,41.66,60.32a16.372,16.372,0,0,1-.284-2.486c-.3-4.128-.814-11.037-6.457-11.037s-6.152,6.909-6.457,11.037a16.385,16.385,0,0,1-.283,2.482,3.363,3.363,0,0,1-3.245,2.561c-.908-.093-1.469-.824-1.579-2.058-.543-6.1-2.555-11.943-4.5-17.594C17.089,38.1,15.42,33.251,15.3,29.18a12.5,12.5,0,0,1,.445-3.822c1.881.916,5.5,2.45,7.488,1.787,2.453-.814,4.451-5.009,5.049-8.1A13.887,13.887,0,0,1,30.377,20a9.018,9.018,0,0,0,4.542,1.359,9.016,9.016,0,0,0,4.549-1.364A9.356,9.356,0,0,1,44.4,18.6a10.64,10.64,0,0,1,7.531,3,10.027,10.027,0,0,1,2.6,7.58C54.418,33.251,52.75,38.1,50.983,43.226ZM42.019,22.243a1,1,0,0,1-.8,1.169,4.709,4.709,0,0,0-2.187,1.274,5.73,5.73,0,0,1-3.924,1.738c-.077,0-.155,0-.234,0A5.583,5.583,0,0,1,30.8,24.686a8.636,8.636,0,0,0-1.149-.874,1,1,0,1,1,1.02-1.721A10.3,10.3,0,0,1,32.1,23.162a3.754,3.754,0,0,0,2.78,1.26,3.8,3.8,0,0,0,2.863-1.259,6.523,6.523,0,0,1,3.108-1.715A1,1,0,0,1,42.019,22.243ZM20.475,12.937c2.783-.923,4.981-6.2,5.212-9.28a1,1,0,0,0-.8-1.056,11.165,11.165,0,0,0-2.212-.213c-3.818,0-9.034,1.825-11.171,6.969a1,1,0,0,0,.449,1.264c.854.46,4.748,2.477,7.391,2.477a3.59,3.59,0,0,0,1.133-.162Zm2.2-8.549c.308,0,.606.013.9.04-.516,2.806-2.341,6.151-3.729,6.611-1.082.362-3.961-.7-6.1-1.746C15.7,5.692,19.69,4.388,22.673,4.388ZM20.968,15.827v4.141l.8-.614a1,1,0,1,1,1.216,1.588l-2.41,1.845a.941.941,0,0,1-.12.064c-.026.015-.048.035-.075.048s-.038.015-.058.023a.994.994,0,0,1-.354.072h0a.993.993,0,0,1-.354-.072c-.02-.007-.038-.014-.058-.022s-.049-.033-.076-.048a.945.945,0,0,1-.12-.064l-2.41-1.845a1,1,0,1,1,1.216-1.588l.8.614V15.827a1,1,0,0,1,2,0Z"></path></g></g></svg> 