<?xml version="1.0" encoding="UTF-8"?> <svg xmlns="http://www.w3.org/2000/svg" width="50.845" height="54.277" viewBox="0 0 50.845 54.277"><path id="Path_283" data-name="Path 283" d="M55.408,10.5A15.684,15.684,0,0,0,44.3,6a14.2,14.2,0,0,0-7.267,2A5.974,5.974,0,0,1,34,9a5.973,5.973,0,0,1-3.031-1A14.2,14.2,0,0,0,23.7,6a15.683,15.683,0,0,0-11.107,4.5A15,15,0,0,0,8.61,21.7a36.325,36.325,0,0,0,1.679,9.128,3.026,3.026,0,0,0,2.774,2.164c.478,1.472.989,2.972,1.517,4.507,2.072,6.025,4.215,12.256,4.783,18.63.249,2.8,2.012,3.964,3.58,4.125a4.453,4.453,0,0,0,.455.023,5.8,5.8,0,0,0,5.28-4.283,17.374,17.374,0,0,0,.389-3.139C29.443,47.767,30.133,42.8,34,42.8s4.557,4.967,4.933,10.055A17.287,17.287,0,0,0,39.323,56a5.709,5.709,0,0,0,5.733,4.255c1.568-.16,3.332-1.328,3.58-4.125.568-6.375,2.711-12.605,4.783-18.631.528-1.536,1.039-3.036,1.517-4.508a3.024,3.024,0,0,0,2.772-2.156A36.354,36.354,0,0,0,59.39,21.7,15,15,0,0,0,55.408,10.5ZM46.644,55.952c-.123,1.385-.759,2.207-1.792,2.313a3.721,3.721,0,0,1-3.614-2.839,17.728,17.728,0,0,1-.312-2.718C40.6,48.253,40.048,40.8,34,40.8s-6.6,7.455-6.927,11.908a17.857,17.857,0,0,1-.311,2.713,3.741,3.741,0,0,1-3.615,2.843c-1.032-.106-1.669-.927-1.792-2.313-.589-6.617-2.773-12.965-4.884-19.1-.45-1.308-.883-2.586-1.3-3.848h9.141a2.987,2.987,0,0,0,2.962-2.524l.424-2.635A1,1,0,0,1,28.687,27H39.352a.994.994,0,0,1,.989.85l.395,2.6A2.983,2.983,0,0,0,43.7,33h9.126c-.416,1.262-.85,2.54-1.3,3.848C49.417,42.986,47.233,49.334,46.644,55.952Zm10.747-34.31a34.508,34.508,0,0,1-1.6,8.629,1.018,1.018,0,0,1-.971.729H43.7a.994.994,0,0,1-.989-.85l-.394-2.6A2.983,2.983,0,0,0,39.352,25H28.687a2.987,2.987,0,0,0-2.962,2.524L25.3,30.159a1,1,0,0,1-.987.841H13.174a1.006,1.006,0,0,1-.966-.736,34.471,34.471,0,0,1-1.6-8.623A13.048,13.048,0,0,1,14.028,11.9,13.649,13.649,0,0,1,23.7,8a12.289,12.289,0,0,1,6.332,1.764A7.872,7.872,0,0,0,34,11a7.871,7.871,0,0,0,3.969-1.237A12.291,12.291,0,0,1,44.3,8a13.65,13.65,0,0,1,9.673,3.9,13.047,13.047,0,0,1,3.417,9.744ZM41.625,12.063a1,1,0,0,1-.8,1.169,5.181,5.181,0,0,0-2.415,1.4,6.07,6.07,0,0,1-4.2,1.868c-.071,0-.145,0-.218,0s-.147,0-.218,0a6.069,6.069,0,0,1-4.2-1.868,5.182,5.182,0,0,0-2.414-1.4,1,1,0,0,1,.374-1.965,7.016,7.016,0,0,1,3.336,1.843A4.143,4.143,0,0,0,33.959,14.5c.015,0,.027.006.041.006s.027-.007.042-.006a4.065,4.065,0,0,0,3.078-1.388,7.016,7.016,0,0,1,3.336-1.843A1,1,0,0,1,41.625,12.063Z" transform="translate(-8.578 -6)"></path></svg> 