<?xml version="1.0" encoding="UTF-8"?> <svg xmlns="http://www.w3.org/2000/svg" width="56" height="46.113" viewBox="0 0 56 46.113"><path id="Path_288" data-name="Path 288" d="M37.873,39.509a48.892,48.892,0,0,0-2.157,10.079,3.541,3.541,0,0,1-3.1,3.566q-.2.019-.39.019a4.987,4.987,0,0,1-4.545-3.687,14.664,14.664,0,0,1-.336-2.692c-.319-4.3-.9-8.5-4.144-8.5s-3.826,4.2-4.145,8.5a14.664,14.664,0,0,1-.336,2.692,4.987,4.987,0,0,1-4.544,3.687q-.195,0-.39-.019a3.542,3.542,0,0,1-3.1-3.566c-.48-5.416-2.3-10.711-4.066-15.831-1.68-4.877-3.266-9.484-3.38-13.528a11.029,11.029,0,0,1,2.918-8.34,11.7,11.7,0,0,1,8.275-3.331,10.441,10.441,0,0,1,5.419,1.505A6.66,6.66,0,0,0,23.2,11.112a6.658,6.658,0,0,0,3.351-1.049,10.443,10.443,0,0,1,5.419-1.505,11.645,11.645,0,0,1,8.387,3.449.906.906,0,1,1-1.32,1.241,9.8,9.8,0,0,0-7.067-2.878,8.673,8.673,0,0,0-4.572,1.3,8.322,8.322,0,0,1-4.2,1.259A8.322,8.322,0,0,1,19,11.665a8.674,8.674,0,0,0-4.572-1.3,9.854,9.854,0,0,0-6.976,2.782,9.292,9.292,0,0,0-2.407,7.026c.107,3.766,1.649,8.246,3.283,12.989,1.8,5.223,3.658,10.624,4.158,16.261.1,1.153.628,1.836,1.48,1.923a3.114,3.114,0,0,0,3.015-2.383,15.064,15.064,0,0,0,.265-2.307c.282-3.807.754-10.178,5.952-10.178s5.67,6.371,5.952,10.178a15.064,15.064,0,0,0,.265,2.307,3.115,3.115,0,0,0,3.015,2.383c.853-.086,1.378-.769,1.481-1.923a50.579,50.579,0,0,1,2.23-10.452.906.906,0,1,1,1.732.533ZM25.82,14.625a3.5,3.5,0,0,1-2.583,1.169c-.013,0-.025.006-.038.006s-.024-.007-.037-.006a3.475,3.475,0,0,1-2.583-1.169,6.019,6.019,0,0,0-2.865-1.581.906.906,0,1,0-.339,1.781,4.363,4.363,0,0,1,2.03,1.182,5.212,5.212,0,0,0,3.608,1.6c.061,0,.124,0,.187,0s.126,0,.187,0a5.213,5.213,0,0,0,3.607-1.6,4.364,4.364,0,0,1,2.03-1.182.906.906,0,0,0-.339-1.781,6.019,6.019,0,0,0-2.865,1.581Zm17.8,3.026a8.666,8.666,0,0,0-3.925.935.906.906,0,1,0,.814,1.619,7,7,0,0,1,7.28.635.906.906,0,0,0,1.086-1.452A8.7,8.7,0,0,0,43.62,17.65ZM59.062,52.774a2.763,2.763,0,0,1-5.092.373L48.133,41.532a.906.906,0,0,1,.4-1.217l.85-.427-1.03-2.048a12.333,12.333,0,1,1,1.623-.807L51,39.074l.849-.427a.907.907,0,0,1,1.217.4l5.837,11.615a2.746,2.746,0,0,1,.155,2.109ZM53.076,21.666a10.573,10.573,0,1,0-4.7,14.2,10.573,10.573,0,0,0,4.7-14.2Zm4.213,29.813-5.43-10.8-1.7.854,5.43,10.8a.951.951,0,1,0,1.7-.854Z" transform="translate(-3.204 -8.557)"></path></svg> 