<?xml version="1.0" encoding="UTF-8"?> <svg xmlns="http://www.w3.org/2000/svg" width="61.471" height="26.537" viewBox="0 0 61.471 26.537"><path id="Path_287" data-name="Path 287" d="M63.978,21.116a2.439,2.439,0,0,0-2.558-.5A77.942,77.942,0,0,1,34,25.991,77.938,77.938,0,0,1,6.581,20.62a2.428,2.428,0,0,0-3.193,3.025C5.727,30.664,13.39,46.988,34,46.988S62.273,30.664,64.612,23.645a2.435,2.435,0,0,0-.634-2.528Zm-58.692,1.9a.428.428,0,0,1,.563-.532c2.173.856,4.429,1.619,6.727,2.288.334,3.836.614,6.547.848,8.187-1.305-.289-2.57-.6-3.762-.941a38.358,38.358,0,0,1-4.375-9Zm6.275,11.579q1.422.346,2.926.646l.57.111.151.029.4,3.3a29.57,29.57,0,0,1-4.045-4.088ZM15.513,33.4c-.179-1.026-.457-3.283-.882-8.078,2.443.644,4.914,1.178,7.383,1.594l.034.441c.159,2.062.348,4.51.564,7.133-2.1-.255-4.219-.56-6.322-.942-.263-.048-.521-.1-.777-.149Zm2.307,6.934-.556-4.6c1.841.31,3.684.578,5.514.793.174,2.2.355,4.442.541,6.623a26.5,26.5,0,0,1-5.5-2.817ZM33,44.963a30.816,30.816,0,0,1-7.615-1.134c-.2-2.294-.393-4.689-.582-7.076,2.884.291,5.671.459,8.2.495Zm0-9.715c-2.567-.037-5.413-.213-8.36-.521-.226-2.727-.427-5.314-.594-7.485A71.913,71.913,0,0,0,33,27.964Zm9.615,8.581A30.817,30.817,0,0,1,35,44.963V37.248c2.527-.035,5.313-.2,8.2-.495C43.01,39.11,42.816,41.518,42.615,43.829Zm.746-9.1c-2.946.308-5.793.484-8.361.521V27.964a71.917,71.917,0,0,0,8.955-.722C43.788,29.4,43.589,31.966,43.361,34.727Zm6.819,5.608a26.5,26.5,0,0,1-5.5,2.817c.185-2.165.365-4.4.541-6.623,1.83-.215,3.674-.483,5.514-.793Zm-4.793-5.844c.214-2.6.4-5.058.564-7.133l.034-.441c2.469-.416,4.94-.95,7.383-1.594-.424,4.795-.7,7.052-.882,8.078-.256.05-.515.1-.777.149C49.607,33.931,47.489,34.236,45.387,34.491Zm7.007,4.189.4-3.3.151-.029.579-.113q1.495-.3,2.917-.644a29.562,29.562,0,0,1-4.045,4.088Zm10.32-15.668a38.357,38.357,0,0,1-4.375,9c-1.194.343-2.459.653-3.762.941.234-1.64.514-4.351.848-8.187,2.3-.67,4.554-1.433,6.727-2.288a.421.421,0,0,1,.45.088.427.427,0,0,1,.113.443Z" transform="translate(-3.264 -20.451)"></path></svg> 